<svg width="128" height="128" viewBox="0 0 128 128" fill="none" xmlns="http://www.w3.org/2000/svg">
<g clip-path="url(#clip0_219_614)">
<g filter="url(#filter0_i_219_614)">
<path d="M104.737 0H23.2631C10.4152 0 0 10.5538 0 23.5725V104.427C0 117.446 10.4152 128 23.2631 128H104.737C117.585 128 128 117.446 128 104.427V23.5725C128 10.5538 117.585 0 104.737 0Z" fill="url(#paint0_linear_219_614)"/>
</g>
<path d="M79.2193 81.478C79.3344 81.487 79.4427 81.5366 79.5255 81.6181C79.6083 81.6997 79.6602 81.8081 79.6722 81.9244C79.688 82.0627 79.6969 82.2017 79.6987 82.3408C79.7049 84.6722 79.7049 87.003 79.6987 89.3332C79.6987 90.2323 79.6598 90.2797 78.7959 90.2371C73.9967 89.9784 69.9277 88.2338 66.97 84.2274C66.833 84.0412 66.6712 83.8725 66.4797 83.6453C66.3213 83.7977 66.1731 83.9605 66.036 84.1327C63.7748 87.3999 60.6999 89.3453 56.8114 89.9689C53.2684 90.5415 49.7847 90.3491 46.4363 88.9563C43.323 87.6628 41.0893 85.3772 39.4205 82.467C37.9293 79.8676 37.0607 77.0536 36.6186 74.0992C35.9274 69.5659 35.806 65.0073 36.0411 60.4299C36.2279 56.7925 36.6559 53.1993 37.6973 49.7039C38.787 46.0444 40.6627 42.9102 43.7075 40.5758C46.0814 38.7571 48.7838 37.8249 51.7523 37.6656C54.123 37.5378 56.4674 37.6656 58.7401 38.44C61.517 39.3511 63.9536 41.0988 65.7247 43.4497C65.9395 43.7336 66.1575 44.0144 66.4532 44.3961C66.735 44.0554 66.9622 43.7904 67.1771 43.5175C69.2661 40.855 71.8594 38.9243 75.1611 38.1545C79.6473 37.1277 84.0028 37.4431 88.0672 39.8171C90.9128 41.4812 92.8103 44.0049 94.2113 46.9625C95.3679 49.4168 96.0061 52.0226 96.3999 54.6915C96.8166 57.6587 97.0076 60.6539 96.9712 63.6508C96.9712 63.8922 96.9712 64.1351 96.9588 64.3764C96.9401 64.766 96.7486 64.9947 96.3517 65.02C95.9547 65.0452 95.6605 64.8386 95.6263 64.389C95.5812 63.818 95.6092 63.2407 95.6014 62.665C95.6121 62.3931 95.6002 62.1209 95.5656 61.8511C95.4784 61.3779 95.1328 61.1334 94.6612 61.1633C94.2253 61.1917 93.9311 61.4283 93.8828 61.8889C93.8346 62.3495 93.8642 62.8574 93.8502 63.3401C93.819 64.3464 93.5295 64.5468 92.5706 64.2471C92.4714 64.2432 92.372 64.2516 92.2748 64.2723C92.2748 64.7282 92.2748 65.1998 92.2748 65.6714C92.2858 65.9422 92.2644 66.2134 92.211 66.479C92.1723 66.6256 92.085 66.7543 91.9638 66.8434C91.8425 66.9325 91.6947 66.9766 91.5451 66.9683C91.3956 66.9599 91.2534 66.8997 91.1425 66.7977C91.0316 66.6957 90.9587 66.5581 90.9361 66.408C90.8941 65.9585 90.8988 65.5026 90.891 65.0499C90.8801 64.419 90.9065 63.7754 90.8598 63.1429C90.8178 62.5924 90.4691 62.277 90.0084 62.2722C89.7807 62.2675 89.5603 62.3534 89.3944 62.5114C89.2285 62.6695 89.1304 62.8871 89.1211 63.1177C89.0697 63.6272 89.0962 64.1445 89.0868 64.6587C89.0868 64.9017 89.0868 65.143 89.0697 65.3843C89.0699 65.5388 89.0116 65.6875 88.9067 65.7996C88.8018 65.9118 88.6585 65.9788 88.5062 65.9869C88.3407 66.0162 88.1705 65.9791 88.0316 65.8834C87.8927 65.7877 87.796 65.6409 87.7621 65.4742C87.7144 65.2063 87.7018 64.9332 87.7248 64.6619C87.7857 62.0591 87.6639 59.4551 87.3605 56.8698C87.1208 54.977 86.7737 53.1062 86.0296 51.3364C85.5597 50.2165 84.881 49.199 84.0308 48.3395C81.1791 45.434 76.8703 46.2038 74.6707 48.89C73.3943 50.4484 72.8028 52.3254 72.4027 54.2624C71.8112 57.0859 71.6509 59.9551 71.6322 62.8338C71.6119 65.8307 71.5839 68.8277 72.026 71.8041C72.2657 73.4225 72.5833 75.0204 73.2137 76.5362C73.7353 77.831 74.5451 78.9862 75.5798 79.9117C76.6212 80.8329 77.8214 81.3913 79.2224 81.4575L79.2193 81.478ZM61.3568 63.3653C61.3834 60.4842 61.1415 57.607 60.6345 54.7719C60.2266 52.6094 59.5324 50.5762 58.1003 48.8521C54.959 45.0665 49.7582 46.2148 47.7346 49.6408C47.1845 50.609 46.7388 51.6344 46.4052 52.6993C45.6845 54.8934 45.4058 57.1884 45.342 59.4819C45.2538 62.6534 45.2538 65.827 45.342 69.0028C45.3979 71.153 45.7415 73.2855 46.3632 75.3421C46.8504 77.0343 47.7621 78.5695 49.0095 79.7982C51.4487 82.1831 55.9428 82.2509 58.2933 78.929C59.3938 77.3722 60.043 75.634 60.4555 73.7932C61.1762 70.5675 61.3661 67.2835 61.3568 63.3653Z" fill="white"/>
<path d="M23.955 46.8582H13.4211C13.5597 46.56 13.6282 46.3692 13.7325 46.1988C15.3265 43.5694 16.9376 40.9494 18.516 38.3121C18.8134 37.8058 19.1589 37.6102 19.7396 37.6133C24.0717 37.6354 28.4054 37.6244 32.7375 37.6275C32.9991 37.6275 33.2606 37.6701 33.5828 37.6985V90.0996C32.9134 90.2842 25.3014 90.3331 24.0779 90.1517C24.0561 89.7384 24.011 89.2999 24.011 88.8599C24.0079 75.3861 24.0063 61.9119 24.0063 48.4371C24.0063 47.9607 23.9752 47.4844 23.955 46.8582Z" fill="white"/>
<path d="M90.8987 68.4002C90.8816 67.8828 91.1695 67.5043 91.5743 67.5106C91.9385 67.5106 92.2405 67.8749 92.2607 68.3213C92.2825 68.8371 92.0023 69.1873 91.568 69.1857C91.1337 69.1841 90.9158 68.9113 90.8987 68.4002Z" fill="white"/>
<path d="M96.9603 66.5593C96.9712 67.0878 96.7688 67.3591 96.3454 67.3811C95.8893 67.4064 95.6076 67.0956 95.6091 66.5688C95.6091 66.0861 95.8582 65.8054 96.2878 65.7959C96.7175 65.7864 96.951 66.0435 96.9603 66.5593Z" fill="white"/>
<path d="M82.0227 84.4664V70.9563H85.4593C86.8776 70.9563 87.9019 71.3746 88.5322 72.211C89.1626 73.0474 89.4778 74.4051 89.4778 76.284V79.1388C89.4778 81.0177 89.1626 82.3754 88.5322 83.2118C87.9019 84.0482 86.8836 84.4664 85.4775 84.4664H82.0227ZM85.2229 82.4117C85.8775 82.4117 86.3563 82.1996 86.6594 81.7753C86.9745 81.351 87.1321 80.5934 87.1321 79.5024V75.9203C87.1321 74.8294 86.9745 74.0717 86.6594 73.6475C86.3563 73.2232 85.8775 73.011 85.2229 73.011H84.3683V82.4117H85.2229ZM98.9559 84.4664H96.5557L96.0648 81.8299H92.9918L92.5009 84.4664H90.1007L92.9736 70.9563H96.0829L98.9559 84.4664ZM94.3374 74.6657L93.3736 79.7934H95.6829L94.7192 74.6839L94.5556 73.5384H94.5192L94.3374 74.6657ZM103.345 84.4664H100.999V80.5571L98.1623 70.9563H100.635L102.054 77.1386L102.144 77.8114H102.181L102.308 77.1386L103.69 70.9563H106.181L103.345 80.5571V84.4664ZM110.191 84.721C108.955 84.721 108.009 84.3998 107.355 83.7573C106.712 83.1148 106.391 82.1754 106.391 80.9389V80.1388H108.7V80.9389C108.7 81.4359 108.809 81.8481 109.028 82.1754C109.258 82.5026 109.646 82.6663 110.191 82.6663C110.616 82.6663 110.937 82.5451 111.155 82.3026C111.385 82.0481 111.501 81.7087 111.501 81.2844V80.4298C111.501 80.0176 111.422 79.6964 111.264 79.4661C111.119 79.2236 110.919 79.0297 110.664 78.8842C110.41 78.7387 109.961 78.5205 109.319 78.2296C108.676 77.9387 108.161 77.6477 107.773 77.3568C107.385 77.0659 107.088 76.7083 106.882 76.284C106.688 75.8597 106.591 75.3264 106.591 74.6839V73.9202C106.591 72.9141 106.912 72.1322 107.555 71.5746C108.209 71.0048 109.076 70.72 110.155 70.72C111.331 70.72 112.228 71.0473 112.846 71.7019C113.464 72.3564 113.767 73.2595 113.755 74.4111V75.1203H111.537V74.4111C111.537 73.3202 111.076 72.7747 110.155 72.7747C109.755 72.7747 109.452 72.8838 109.246 73.102C109.04 73.308 108.937 73.5808 108.937 73.9202V74.6839C108.937 75.0112 109.003 75.2779 109.137 75.484C109.282 75.6779 109.452 75.8355 109.646 75.9567C109.852 76.0658 110.167 76.2113 110.591 76.3931C111.367 76.7083 111.985 77.0416 112.446 77.3932C112.919 77.7447 113.27 78.1629 113.501 78.6478C113.743 79.1327 113.864 79.7327 113.864 80.448V81.3207C113.864 82.3754 113.531 83.2057 112.864 83.8118C112.198 84.4179 111.307 84.721 110.191 84.721Z" fill="#D6B27A"/>
<path d="M81.8054 88.3365C81.8054 88.0452 81.849 87.8007 81.9361 87.6031C82.0011 87.4575 82.0896 87.3268 82.2014 87.211C82.3145 87.0953 82.438 87.0095 82.572 86.9536C82.7501 86.8782 82.9556 86.8404 83.1883 86.8404C83.6097 86.8404 83.9464 86.9711 84.1987 87.2325C84.4523 87.4939 84.5791 87.8573 84.5791 88.3228C84.5791 88.7845 84.4536 89.146 84.2026 89.4073C83.9516 89.6674 83.6162 89.7974 83.1961 89.7974C82.7709 89.7974 82.4328 89.668 82.1819 89.4093C81.9309 89.1492 81.8054 88.7916 81.8054 88.3365ZM82.4003 88.317C82.4003 88.6408 82.4751 88.8865 82.6246 89.0543C82.7742 89.2207 82.964 89.3039 83.1942 89.3039C83.4244 89.3039 83.6129 89.2214 83.7598 89.0562C83.9081 88.8898 83.9822 88.6408 83.9822 88.3092C83.9822 87.9815 83.91 87.737 83.7657 87.5758C83.6227 87.4145 83.4322 87.3339 83.1942 87.3339C82.9562 87.3339 82.7644 87.4158 82.6188 87.5797C82.4732 87.7422 82.4003 87.988 82.4003 88.317ZM84.9156 89.7487V86.8892H86.8759V87.3729H85.493V88.0498H86.6867V88.5335H85.493V89.7487H84.9156ZM88.2181 89.7487V86.8892H89.0822L89.601 88.8397L90.114 86.8892H90.98V89.7487H90.4436V87.4978L89.876 89.7487H89.3201L88.7545 87.4978V89.7487H88.2181ZM92.2409 89.7487V88.4801L91.1368 86.7345H91.8503L92.5596 87.927L93.2545 86.7345H93.9556L92.8474 88.4842V89.7487H92.2409ZM96.1866 86.7345H96.7932V88.6425C96.7932 88.892 96.7712 89.0839 96.7274 89.2182C96.6684 89.3937 96.5615 89.5348 96.4066 89.6417C96.2517 89.7473 96.0475 89.8001 95.7939 89.8001C95.4965 89.8001 95.2676 89.7171 95.1072 89.5513C94.9469 89.3841 94.866 89.1394 94.8646 88.8173L95.4382 88.7515C95.4451 88.9242 95.4705 89.0462 95.5143 89.1175C95.5801 89.2257 95.6802 89.2799 95.8145 89.2799C95.9502 89.2799 96.0461 89.2415 96.1023 89.1647C96.1585 89.0866 96.1866 88.9256 96.1866 88.6816V86.7345ZM97.1932 88.2601C97.1932 87.9531 97.2391 87.6954 97.3309 87.487C97.3995 87.3335 97.4927 87.1958 97.6106 87.0738C97.7298 86.9518 97.86 86.8613 98.0012 86.8024C98.189 86.7229 98.4055 86.6831 98.6509 86.6831C99.095 86.6831 99.45 86.8209 99.7159 87.0964C99.9832 87.3719 100.117 87.755 100.117 88.2457C100.117 88.7323 99.9846 89.1133 99.72 89.3889C99.4555 89.663 99.1019 89.8001 98.6591 89.8001C98.2109 89.8001 97.8545 89.6637 97.59 89.3909C97.3255 89.1168 97.1932 88.7398 97.1932 88.2601ZM97.8203 88.2395C97.8203 88.5808 97.8991 88.8399 98.0567 89.0167C98.2143 89.1922 98.4145 89.2799 98.6571 89.2799C98.8997 89.2799 99.0984 89.1928 99.2533 89.0188C99.4096 88.8433 99.4877 88.5808 99.4877 88.2313C99.4877 87.8859 99.4116 87.6282 99.2595 87.4583C99.1087 87.2883 98.9079 87.2033 98.6571 87.2033C98.4062 87.2033 98.2041 87.2897 98.0505 87.4624C97.897 87.6337 97.8203 87.8928 97.8203 88.2395ZM100.463 86.7345H101.072V88.367C101.072 88.6261 101.08 88.794 101.095 88.8707C101.121 88.9941 101.182 89.0935 101.28 89.1689C101.378 89.2429 101.513 89.2799 101.683 89.2799C101.855 89.2799 101.986 89.2449 102.073 89.175C102.161 89.1038 102.214 89.0167 102.232 88.9139C102.249 88.8111 102.258 88.6405 102.258 88.402V86.7345H102.867V88.3177C102.867 88.6795 102.85 88.9352 102.818 89.0846C102.785 89.234 102.724 89.3601 102.635 89.4629C102.547 89.5657 102.429 89.6479 102.281 89.7096C102.133 89.7699 101.94 89.8001 101.701 89.8001C101.413 89.8001 101.195 89.7672 101.045 89.7014C100.897 89.6342 100.78 89.5479 100.694 89.4423C100.607 89.3354 100.55 89.2237 100.523 89.1072C100.483 88.9345 100.463 88.6795 100.463 88.3423V86.7345ZM103.386 89.7487V86.7345H104.667C104.989 86.7345 105.223 86.762 105.368 86.8168C105.515 86.8702 105.632 86.9662 105.72 87.1046C105.807 87.2431 105.851 87.4014 105.851 87.5796C105.851 87.8057 105.785 87.9928 105.652 88.1409C105.519 88.2875 105.32 88.38 105.056 88.4184C105.187 88.4952 105.296 88.5795 105.38 88.6713C105.467 88.7631 105.583 88.9263 105.728 89.1606L106.096 89.7487H105.368L104.928 89.0928C104.772 88.8584 104.665 88.7111 104.607 88.6507C104.55 88.5891 104.489 88.5473 104.424 88.5253C104.36 88.502 104.258 88.4904 104.118 88.4904H103.995V89.7487H103.386ZM103.995 88.0093H104.445C104.737 88.0093 104.919 87.9969 104.992 87.9723C105.065 87.9476 105.121 87.9051 105.163 87.8448C105.204 87.7845 105.224 87.7091 105.224 87.6186C105.224 87.5172 105.197 87.4356 105.142 87.374C105.089 87.3109 105.012 87.2712 104.914 87.2547C104.864 87.2479 104.716 87.2444 104.47 87.2444H103.995V88.0093ZM106.307 89.7487V86.7345H106.899L108.133 88.7474V86.7345H108.698V89.7487H108.087L106.872 87.7831V89.7487H106.307ZM109.217 89.7487V86.7345H111.452V87.2444H109.826V87.9126H111.339V88.4205H109.826V89.2408H111.51V89.7487H109.217ZM112.691 89.7487V88.4801L111.587 86.7345H112.3L113.01 87.927L113.705 86.7345H114.406L113.298 88.4842V89.7487H112.691Z" fill="#D6B27A"/>
</g>
<defs>
<filter id="filter0_i_219_614" x="-0.789498" y="-0.789498" width="128.789" height="128.789" filterUnits="userSpaceOnUse" color-interpolation-filters="sRGB">
<feFlood flood-opacity="0" result="BackgroundImageFix"/>
<feBlend mode="normal" in="SourceGraphic" in2="BackgroundImageFix" result="shape"/>
<feColorMatrix in="SourceAlpha" type="matrix" values="0 0 0 0 0 0 0 0 0 0 0 0 0 0 0 0 0 0 127 0" result="hardAlpha"/>
<feOffset dx="-0.789498" dy="-0.789498"/>
<feGaussianBlur stdDeviation="1.579"/>
<feComposite in2="hardAlpha" operator="arithmetic" k2="-1" k3="1"/>
<feColorMatrix type="matrix" values="0 0 0 0 0.296967 0 0 0 0 0.57209 0 0 0 0 0.701923 0 0 0 1 0"/>
<feBlend mode="normal" in2="shape" result="effect1_innerShadow_219_614"/>
</filter>
<linearGradient id="paint0_linear_219_614" x1="8.54666" y1="8.49695" x2="119.5" y2="118.962" gradientUnits="userSpaceOnUse">
<stop stop-color="#82D4FA"/>
<stop offset="0.277026" stop-color="#0477AD"/>
<stop offset="0.42991" stop-color="#006A9C"/>
<stop offset="0.599843" stop-color="#025A83"/>
<stop offset="0.72" stop-color="#004869"/>
<stop offset="0.856377" stop-color="#003E5B"/>
</linearGradient>
<clipPath id="clip0_219_614">
<rect width="128" height="128" fill="white"/>
</clipPath>
</defs>
</svg>
